<?xml version="1.0" encoding="UTF-8"?>
<svg xmlns="http://www.w3.org/2000/svg" xmlns:xlink="http://www.w3.org/1999/xlink" viewBox="0 0 1000 1000">
  <defs>
    <style>
      .cls-1 {
        fill: url(#New_Gradient_Swatch-13);
      }

      .cls-2 {
        fill: url(#New_Gradient_Swatch-17);
      }

      .cls-3 {
        fill: url(#New_Gradient_Swatch-7);
      }

      .cls-4 {
        fill: url(#New_Gradient_Swatch-18);
      }

      .cls-5 {
        fill: url(#New_Gradient_Swatch);
      }

      .cls-6 {
        fill: url(#New_Gradient_Swatch-5);
      }

      .cls-7 {
        isolation: isolate;
      }

      .cls-8 {
        fill: url(#New_Gradient_Swatch-16);
      }

      .cls-9 {
        fill: url(#New_Gradient_Swatch-8);
      }

      .cls-10 {
        fill: url(#New_Gradient_Swatch-32);
      }

      .cls-11 {
        fill: url(#New_Gradient_Swatch-4);
      }

      .cls-12 {
        fill: url(#New_Gradient_Swatch-29);
      }

      .cls-13 {
        fill: url(#New_Gradient_Swatch-34);
      }

      .cls-14 {
        fill: url(#New_Gradient_Swatch-21);
      }

      .cls-15 {
        fill: url(#New_Gradient_Swatch-30);
      }

      .cls-16 {
        fill: url(#New_Gradient_Swatch-22);
      }

      .cls-17 {
        fill: url(#New_Gradient_Swatch-3);
      }

      .cls-18 {
        fill: url(#New_Gradient_Swatch-25);
      }

      .cls-19 {
        fill: url(#New_Gradient_Swatch-33);
      }

      .cls-20 {
        fill: url(#New_Gradient_Swatch-14);
      }

      .cls-21 {
        fill: url(#New_Gradient_Swatch-24);
      }

      .cls-22 {
        fill: url(#New_Gradient_Swatch-26);
      }

      .cls-23 {
        fill: url(#New_Gradient_Swatch-31);
      }

      .cls-24 {
        fill: url(#New_Gradient_Swatch-19);
      }

      .cls-25 {
        fill: url(#New_Gradient_Swatch-6);
        mix-blend-mode: screen;
        opacity: .6;
      }

      .cls-26 {
        fill: url(#New_Gradient_Swatch-35);
      }

      .cls-27 {
        fill: url(#New_Gradient_Swatch-10);
      }

      .cls-28 {
        fill: url(#New_Gradient_Swatch-12);
      }

      .cls-29 {
        fill: url(#New_Gradient_Swatch-20);
      }

      .cls-30 {
        fill: url(#New_Gradient_Swatch-9);
      }

      .cls-31 {
        fill: url(#New_Gradient_Swatch-28);
      }

      .cls-32 {
        fill: url(#New_Gradient_Swatch-27);
      }

      .cls-33 {
        fill: url(#New_Gradient_Swatch-15);
      }

      .cls-34 {
        fill: url(#New_Gradient_Swatch-23);
      }

      .cls-35 {
        fill: url(#New_Gradient_Swatch-11);
      }

      .cls-36 {
        fill: url(#New_Gradient_Swatch-2);
      }
    </style>
    <linearGradient id="New_Gradient_Swatch" data-name="New Gradient Swatch" x1="604.8" y1="293.9" x2="604.8" y2="606.7" gradientUnits="userSpaceOnUse">
      <stop offset="0" stop-color="#eee998"/>
      <stop offset="1" stop-color="#b59f55"/>
    </linearGradient>
    <linearGradient id="New_Gradient_Swatch-2" data-name="New Gradient Swatch" x1="395.3" y1="293.9" x2="395.3" y2="606.7" xlink:href="#New_Gradient_Swatch"/>
    <linearGradient id="New_Gradient_Swatch-3" data-name="New Gradient Swatch" x1="604.8" y1="293.9" x2="604.8" xlink:href="#New_Gradient_Swatch"/>
    <linearGradient id="New_Gradient_Swatch-4" data-name="New Gradient Swatch" x1="636.8" y1="542" x2="636.8" y2="544.7" xlink:href="#New_Gradient_Swatch"/>
    <linearGradient id="New_Gradient_Swatch-5" data-name="New Gradient Swatch" x1="572.8" y1="541.5" x2="572.8" y2="545.1" xlink:href="#New_Gradient_Swatch"/>
    <linearGradient id="New_Gradient_Swatch-6" data-name="New Gradient Swatch" x1="606.4" y1="293.9" x2="606.4" y2="606.7" xlink:href="#New_Gradient_Swatch"/>
    <linearGradient id="New_Gradient_Swatch-7" data-name="New Gradient Swatch" x1="607" y1="293.9" x2="607" y2="606.7" xlink:href="#New_Gradient_Swatch"/>
    <linearGradient id="New_Gradient_Swatch-8" data-name="New Gradient Swatch" x1="560.6" y1="293.9" x2="560.6" y2="606.7" xlink:href="#New_Gradient_Swatch"/>
    <linearGradient id="New_Gradient_Swatch-9" data-name="New Gradient Swatch" x1="440.5" y1="293.9" x2="440.5" y2="606.7" xlink:href="#New_Gradient_Swatch"/>
    <linearGradient id="New_Gradient_Swatch-10" data-name="New Gradient Swatch" x1="501.2" y1="293.9" x2="501.2" y2="606.7" xlink:href="#New_Gradient_Swatch"/>
    <linearGradient id="New_Gradient_Swatch-11" data-name="New Gradient Swatch" x1="500.6" y1="329.8" x2="500.6" y2="642.7" xlink:href="#New_Gradient_Swatch"/>
    <linearGradient id="New_Gradient_Swatch-12" data-name="New Gradient Swatch" x1="500.8" y1="293.9" x2="500.8" y2="606.7" xlink:href="#New_Gradient_Swatch"/>
    <linearGradient id="New_Gradient_Swatch-13" data-name="New Gradient Swatch" x1="500.8" y1="293.9" x2="500.8" y2="606.7" xlink:href="#New_Gradient_Swatch"/>
    <linearGradient id="New_Gradient_Swatch-14" data-name="New Gradient Swatch" x1="501.4" y1="293.9" x2="501.4" y2="606.7" xlink:href="#New_Gradient_Swatch"/>
    <linearGradient id="New_Gradient_Swatch-15" data-name="New Gradient Swatch" x1="501.2" y1="293.9" x2="501.2" y2="606.7" xlink:href="#New_Gradient_Swatch"/>
    <linearGradient id="New_Gradient_Swatch-16" data-name="New Gradient Swatch" x1="501.2" y1="293.9" x2="501.2" y2="606.7" xlink:href="#New_Gradient_Swatch"/>
    <linearGradient id="New_Gradient_Swatch-17" data-name="New Gradient Swatch" x1="246.6" y1="656.9" x2="820" y2="656.9" xlink:href="#New_Gradient_Swatch"/>
    <linearGradient id="New_Gradient_Swatch-18" data-name="New Gradient Swatch" x1="246.6" y1="656.6" x2="820" y2="656.6" xlink:href="#New_Gradient_Swatch"/>
    <linearGradient id="New_Gradient_Swatch-19" data-name="New Gradient Swatch" x1="246.6" y1="656.9" x2="820" y2="656.9" xlink:href="#New_Gradient_Swatch"/>
    <linearGradient id="New_Gradient_Swatch-20" data-name="New Gradient Swatch" x1="246.6" y1="656.9" x2="820" y2="656.9" xlink:href="#New_Gradient_Swatch"/>
    <linearGradient id="New_Gradient_Swatch-21" data-name="New Gradient Swatch" x1="246.6" y1="656.9" x2="820" y2="656.9" xlink:href="#New_Gradient_Swatch"/>
    <linearGradient id="New_Gradient_Swatch-22" data-name="New Gradient Swatch" x1="246.6" y1="656.9" x2="820" y2="656.9" xlink:href="#New_Gradient_Swatch"/>
    <linearGradient id="New_Gradient_Swatch-23" data-name="New Gradient Swatch" x1="246.6" y1="656.9" x2="820" y2="656.9" xlink:href="#New_Gradient_Swatch"/>
    <linearGradient id="New_Gradient_Swatch-24" data-name="New Gradient Swatch" x1="246.6" y1="656.9" x2="820" y2="656.9" xlink:href="#New_Gradient_Swatch"/>
    <linearGradient id="New_Gradient_Swatch-25" data-name="New Gradient Swatch" x1="246.6" y1="656.9" x2="820" y2="656.9" xlink:href="#New_Gradient_Swatch"/>
    <linearGradient id="New_Gradient_Swatch-26" data-name="New Gradient Swatch" x1="246.6" y1="656.9" x2="820" y2="656.9" xlink:href="#New_Gradient_Swatch"/>
    <linearGradient id="New_Gradient_Swatch-27" data-name="New Gradient Swatch" x1="246.6" y1="656.9" x2="820" y2="656.9" xlink:href="#New_Gradient_Swatch"/>
    <linearGradient id="New_Gradient_Swatch-28" data-name="New Gradient Swatch" x1="246.6" y1="656.9" x2="820" y2="656.9" xlink:href="#New_Gradient_Swatch"/>
    <linearGradient id="New_Gradient_Swatch-29" data-name="New Gradient Swatch" x1="246.6" y1="656.9" x2="820" y2="656.9" xlink:href="#New_Gradient_Swatch"/>
    <linearGradient id="New_Gradient_Swatch-30" data-name="New Gradient Swatch" x1="246.6" y1="656.9" x2="820" y2="656.9" xlink:href="#New_Gradient_Swatch"/>
    <linearGradient id="New_Gradient_Swatch-31" data-name="New Gradient Swatch" x1="246.6" y1="656.9" x2="820" y2="656.9" xlink:href="#New_Gradient_Swatch"/>
    <linearGradient id="New_Gradient_Swatch-32" data-name="New Gradient Swatch" x1="246.6" y1="672.4" x2="820" y2="672.4" xlink:href="#New_Gradient_Swatch"/>
    <linearGradient id="New_Gradient_Swatch-33" data-name="New Gradient Swatch" x1="246.6" y1="656.9" x2="820" y2="656.9" xlink:href="#New_Gradient_Swatch"/>
    <linearGradient id="New_Gradient_Swatch-34" data-name="New Gradient Swatch" x1="246.6" y1="656.9" x2="820" y2="656.9" xlink:href="#New_Gradient_Swatch"/>
    <linearGradient id="New_Gradient_Swatch-35" data-name="New Gradient Swatch" x1="246.6" y1="656.9" x2="820" y2="656.9" xlink:href="#New_Gradient_Swatch"/>
  </defs>
  <g class="cls-7">
    <g id="Layer_1" data-name="Layer 1">
      <g>
        <path class="cls-5" d="m638.3,542.7c9.7-4.6,15.8-11.9,18-21.6v-.4c0,0-3.7,0-3.7,0l-43.6-93.9c1.4-1.2,2.3-3,2.3-4.9,0-3.6-2.9-6.5-6.5-6.5s-6.5,2.9-6.5,6.5.9,3.7,2.3,4.9l-43.6,93.9h-3.8v.4c2.3,9.7,8.3,17,18.1,21.6m31.3-114.7c.3.1.7.2,1,.3v92.5h-44.1l43.1-92.8Zm47.4,92.8h-44.1v-92.5c.3,0,.7-.2,1-.3l43.1,92.8Z"/>
        <g>
          <path class="cls-36" d="m399.5,426.8c1.4-1.2,2.3-3,2.3-4.9,0-3.6-2.9-6.5-6.5-6.5s-6.5,2.9-6.5,6.5.9,3.7,2.3,4.9l-43.6,93.9h-3.8v.4c.6,2.2,1.3,4.2,2.2,6.1h0s0,0,0,0c.8,1.7,1.7,3.2,2.7,4.7,0,0,0,0,0,0,.2.3.5.7.7,1,0,0,.1.1.2.2.2.3.5.6.8.9,0,0,0,0,0,0,.5.6,1,1.1,1.6,1.7,0,0,.2.2.3.3.2.2.5.4.7.6.2.2.3.3.5.5.2.2.4.4.7.6.2.2.4.4.7.5.2.2.4.3.6.5.4.3.8.6,1.3.9.2.1.3.2.5.3.3.2.7.4,1,.6.2.1.4.2.6.3.3.2.7.4,1.1.6.2,0,.3.2.5.3.5.3,1.1.5,1.6.8.5.2,1,.4,1.5.7h64l1.5-.7c.5-.3,1.1-.5,1.6-.8.2,0,.3-.2.5-.3.4-.2.7-.4,1.1-.6.2-.1.4-.2.6-.3.3-.2.7-.4,1-.6.2-.1.3-.2.5-.3.4-.3.9-.6,1.3-.9.2-.1.4-.3.6-.5.2-.2.5-.4.7-.5.2-.2.4-.4.7-.6.2-.2.3-.3.5-.5.2-.2.5-.4.7-.6,0,0,.2-.2.3-.3.5-.5,1.1-1.1,1.6-1.7,0,0,0,0,0,0,.3-.3.5-.6.8-.9,0,0,.1-.1.2-.2.2-.3.5-.6.7-1,0,0,0,0,0,0,2.2-3.2,3.8-6.8,4.8-10.8v-.4c0,0-3.7,0-3.7,0l-43.6-93.9Zm41.1,93.9h-44.1v-92.5c.4,0,.7-.2,1-.3l43.1,92.8Zm-47.4-92.8c.3.1.6.2,1,.3v92.5h-44.1l43.1-92.8Z"/>
          <path class="cls-17" d="m555.4,527.2c3,6.7,8.4,11.9,15.9,15.4.5.2,1,.4,1.5.7h64c.5-.2,1-.4,1.5-.7,7.6-3.6,12.9-8.8,15.9-15.4h-98.9Z"/>
          <polygon class="cls-11" points="636.8 543.3 636.8 543.3 636.8 543.3 636.8 543.3"/>
          <polygon class="cls-6" points="572.8 543.3 572.8 543.3 572.8 543.3 572.8 543.3"/>
        </g>
        <path class="cls-25" d="m603.5,420c0,1.6,1.3,2.9,2.9,2.9s2.9-1.3,2.9-2.9-1.3-2.9-2.9-2.9-2.9,1.3-2.9,2.9Z"/>
        <path class="cls-3" d="m605.9,419.5c0,.6.5,1.1,1.1,1.1s1.1-.5,1.1-1.1-.5-1.1-1.1-1.1-1.1.5-1.1,1.1Z"/>
        <g>
          <path class="cls-9" d="m619.1,411.6c.5.1.8.6.8,1.2-1.2,7.4-6.8,12.9-14.3,14.8-17.7,4.4-50.9-28.8-73.3-25.6-22.5,3.2-31,17.2-31,17.2v-26.9c19.5-9.5,44.4-9.9,63.7.4,10.4,5.6,19.1,13.8,29.2,20,6.1,3.7,14.7,4.4,18.4-1.9s.7-.7,1.2-.5l5.3,1.5Z"/>
          <path class="cls-30" d="m382,411.6c-.5.1-.8.6-.8,1.2,1.2,7.4,6.8,12.9,14.3,14.8,17.7,4.4,50.9-28.8,73.3-25.6,22.5,3.2,31,17.2,31,17.2v-26.9c-19.5-9.5-44.4-9.9-63.7.4-10.4,5.6-19.1,13.8-29.2,20-6.1,3.7-14.7,4.4-18.4-1.9-.2-.4-.7-.7-1.2-.5l-5.3,1.5Z"/>
        </g>
        <circle class="cls-27" cx="501.2" cy="529.1" r="17.9"/>
        <path class="cls-35" d="m535.6,573c-2.6,10.1-31.4,10-34.3,10-2.4,0-33.3-.4-35.7-11-2-9,16.5-25.1,35.7-24.7,18.9.4,36.6,16.9,34.3,25.7Z"/>
        <path class="cls-28" d="m544.8,584h-88.1c-.9,0-1.7-1.4-1.7-3.1h0c0-1.7.8-3.1,1.7-3.1h88.1c.9,0,1.7,1.4,1.7,3.1h0c0,1.7-.8,3.1-1.7,3.1Z"/>
        <path class="cls-1" d="m538.2,578.6h-74.9c-.8,0-1.4-2-1.4-4.5h0c0-2.5.6-4.5,1.4-4.5h74.9c.8,0,1.4,2,1.4,4.5h0c0,2.5-.6,4.5-1.4,4.5Z"/>
        <path class="cls-20" d="m491.4,499.9s-1.5,10.3,4.9,11.6h10.2c6.4-1.3,4.9-11.6,4.9-11.6l-5.4-117.7h-9.2l-5.4,117.7Z"/>
        <circle class="cls-33" cx="501.2" cy="373.9" r="9.6"/>
        <path class="cls-8" d="m510.8,349.9c0,8-4.3,14.4-9.6,14.4s-9.6-6.5-9.6-14.4,9.6-14.4,9.6-14.4c0,0,9.6,6.5,9.6,14.4Z"/>
      </g>
      <g>
        <path class="cls-2" d="m263.9,642.9l-18.5,26.4h11.5c1.8,0,3.1-.4,4.1-1.2.9-.8,1.8-2.3,2.5-4.7h.7c0,.1-1.3,7.6-1.3,7.6h-22.9v-.8l18-25.7h-9c-1.5,0-2.6.2-3.2.5-.7.3-1.2.8-1.5,1.4s-.7,1.8-1,3.5h-.8l.6-7h20.8Z"/>
        <path class="cls-4" d="m284.8,661.6h-10.9l-1.9,4.4c-.5,1.1-.7,1.9-.7,2.4s.2.8.6,1.1c.4.3,1.3.5,2.6.6v.8h-8.9v-.8c1.2-.2,1.9-.5,2.3-.8.7-.7,1.5-2,2.3-4l9.9-23.1h.7l9.8,23.4c.8,1.9,1.5,3.1,2.1,3.7s1.5.9,2.7.9v.8h-11.1v-.8c1.1,0,1.9-.2,2.3-.6.4-.3.6-.7.6-1.2s-.3-1.6-.8-2.9l-1.7-4Zm-.6-1.5l-4.8-11.4-4.9,11.4h9.7Z"/>
        <path class="cls-24" d="m309.2,670.2v.8h-12v-.8h1c1.2,0,2-.3,2.5-1,.3-.4.5-1.5.5-3.2v-18.2c0-1.4,0-2.4-.3-2.8-.1-.3-.4-.6-.8-.9-.6-.3-1.2-.5-1.9-.5h-1v-.8h12v.8h-1c-1.1,0-2,.3-2.5,1-.3.4-.5,1.5-.5,3.2v18.2c0,1.4,0,2.4.3,2.8.1.3.4.6.9.9.6.3,1.2.5,1.9.5h1Z"/>
        <path class="cls-29" d="m310.9,671v-.8h1.1c1.2,0,2-.4,2.5-1.1.3-.5.5-1.5.5-3.1v-18.2c0-1.8-.2-2.9-.6-3.3-.5-.6-1.3-.9-2.4-.9h-1.1v-.8h11.4c4.2,0,7.4.5,9.6,1.4,2.2,1,4,2.5,5.3,4.8,1.3,2.2,2,4.8,2,7.7s-1.2,7.2-3.6,9.8c-2.7,2.9-6.7,4.4-12.2,4.4h-12.6Zm8-2c1.8.4,3.2.6,4.4.6,3.2,0,5.9-1.1,8-3.4,2.1-2.3,3.2-5.3,3.2-9.2s-1.1-6.9-3.2-9.2c-2.1-2.2-4.8-3.4-8.1-3.4s-2.7.2-4.2.6v23.9Z"/>
        <path class="cls-14" d="m354,670.2v.8h-12v-.8h1c1.2,0,2-.3,2.5-1,.3-.4.5-1.5.5-3.2v-18.2c0-1.4,0-2.4-.3-2.8-.1-.3-.4-.6-.8-.9-.6-.3-1.2-.5-1.9-.5h-1v-.8h12v.8h-1c-1.1,0-2,.3-2.5,1-.3.4-.5,1.5-.5,3.2v18.2c0,1.4,0,2.4.3,2.8.1.3.4.6.9.9.6.3,1.2.5,1.9.5h1Z"/>
        <path class="cls-16" d="m387.3,652.9h8.7v.8c-1.2,0-2.1.4-2.7.8-.6.4-1.5,1.8-2.7,3.9-1.2,2.2-2.6,4.2-4.1,6.2,1.2,1.4,2.3,2.4,3.3,3,1,.6,1.9.9,2.9.9s1.8-.3,2.4-.8c.7-.5,1.1-1.3,1.4-2.3l.8.6c-.5,1.9-1.3,3.4-2.5,4.3s-2.5,1.4-4,1.4-2.3-.3-3.5-.9c-1.2-.6-2.4-1.7-3.8-3.1-1.7,1.5-3.3,2.6-4.6,3.2-1.4.6-2.8.9-4.4.9-2.3,0-4.1-.6-5.4-1.8s-2-2.7-2-4.4.6-3.3,1.8-5c1.2-1.7,3.5-3.4,6.8-5.2-.6-1.4-1.1-2.6-1.3-3.5-.2-.9-.4-1.8-.4-2.6,0-2.4.9-4.2,2.6-5.4,1.4-1,2.9-1.5,4.6-1.5s3,.5,4,1.5c1,1,1.6,2.2,1.6,3.6s-.5,2.8-1.5,3.9-2.8,2.3-5.3,3.6c1.8,3.1,3.6,6,5.5,8.6,2.4-2.9,3.6-5.3,3.6-7.3s-.2-1.2-.6-1.7c-.3-.4-.7-.6-1.3-.7v-.8Zm-4.7,13.5c-1.8-2.5-3.1-4.3-3.8-5.5-.7-1.1-1.5-2.6-2.3-4.3-1.7,1-2.9,2-3.7,3.2-.8,1.1-1.3,2.4-1.3,3.7s.5,2.8,1.4,3.9c1,1.1,2.2,1.7,3.9,1.7s1.7-.2,2.5-.5,1.9-1.1,3.3-2.2Zm-3.2-13c1.7-.8,3-1.7,3.8-2.8.9-1,1.3-2.2,1.3-3.5s-.3-1.8-.9-2.5c-.6-.6-1.4-1-2.3-1s-2.1.4-2.7,1.3c-.6.8-.9,1.7-.9,2.5s.1,1.4.4,2.3c.2.8.7,2.1,1.4,3.7Z"/>
        <path class="cls-34" d="m426.6,671l-10.9-23.7v18.8c0,1.7.2,2.8.6,3.2.5.6,1.3.9,2.4.9h1v.8h-9.8v-.8h1c1.2,0,2-.4,2.5-1.1.3-.4.5-1.5.5-3v-18.4c0-1.2-.1-2.1-.4-2.7-.2-.4-.5-.7-1.1-1-.5-.3-1.4-.4-2.5-.4v-.8h8l10.2,22,10-22h8v.8h-1c-1.2,0-2.1.4-2.5,1.1-.3.4-.5,1.5-.5,3v18.4c0,1.7.2,2.8.6,3.2.5.6,1.3.9,2.4.9h1v.8h-11.9v-.8h1c1.2,0,2-.4,2.5-1.1.3-.4.5-1.5.5-3v-18.8l-10.8,23.7h-.7Z"/>
        <path class="cls-21" d="m462.5,642.2c3.6,0,6.8,1.4,9.5,4.2,2.7,2.8,4,6.2,4,10.4s-1.3,7.8-4,10.6-6,4.2-9.8,4.2-7.1-1.4-9.8-4.1c-2.6-2.8-3.9-6.3-3.9-10.7s1.5-8.1,4.6-10.9c2.6-2.4,5.8-3.7,9.5-3.7Zm-.4,1.5c-2.5,0-4.5.9-6.1,2.8-1.9,2.3-2.8,5.7-2.8,10.2s1,8.1,2.9,10.6c1.5,1.9,3.5,2.8,6,2.8s4.8-1,6.5-3.1c1.7-2.1,2.6-5.3,2.6-9.7s-.9-8.4-2.8-10.8c-1.5-1.9-3.6-2.8-6.3-2.8Z"/>
        <path class="cls-18" d="m486.5,644.4v11.1h6.2c1.6,0,2.7-.2,3.2-.7.7-.6,1.1-1.8,1.2-3.4h.8v9.8h-.8c-.2-1.4-.4-2.2-.6-2.6-.2-.5-.7-.9-1.2-1.1-.6-.3-1.4-.4-2.6-.4h-6.2v9.3c0,1.2,0,2,.2,2.3.1.3.3.5.6.6.3.2.8.2,1.6.2h4.8c1.6,0,2.7-.1,3.5-.3.7-.2,1.4-.7,2.1-1.3.9-.9,1.7-2.1,2.6-3.9h.8l-2.4,7h-21.7v-.8h1c.7,0,1.3-.2,1.9-.5.4-.2.7-.6.9-1,.2-.4.2-1.3.2-2.7v-18.3c0-1.8-.2-2.9-.5-3.3-.5-.6-1.3-.8-2.5-.8h-1v-.8h21.7l.3,6.2h-.8c-.3-1.5-.6-2.5-1-3-.4-.6-.9-1-1.6-1.3-.6-.2-1.5-.3-2.9-.3h-7.7Z"/>
        <path class="cls-22" d="m532.3,671h-7.5l-9.5-13.1c-.7,0-1.3,0-1.7,0s-.4,0-.6,0-.4,0-.6,0v8.2c0,1.8.2,2.9.6,3.3.5.6,1.3.9,2.4.9h1.1v.8h-12v-.8h1.1c1.2,0,2-.4,2.5-1.2.3-.4.4-1.4.4-3v-18.2c0-1.8-.2-2.9-.6-3.3-.5-.6-1.3-.9-2.4-.9h-1.1v-.8h10.2c3,0,5.2.2,6.6.7s2.6,1.2,3.6,2.4c1,1.2,1.5,2.6,1.5,4.2s-.6,3.2-1.7,4.5c-1.1,1.3-2.9,2.2-5.2,2.7l5.8,8.1c1.3,1.9,2.5,3.1,3.4,3.7,1,.6,2.2,1,3.7,1.2v.8Zm-20-14.4c.3,0,.5,0,.7,0,.2,0,.4,0,.5,0,2.7,0,4.7-.6,6.1-1.7s2-2.6,2-4.4-.5-3.2-1.6-4.3-2.6-1.6-4.4-1.6-1.9.1-3.3.4v11.7Z"/>
        <path class="cls-32" d="m551.4,642.2v9.7h-.8c-.2-1.9-.7-3.4-1.3-4.5s-1.6-2-2.7-2.6-2.4-1-3.7-1-2.6.4-3.6,1.3c-.9.9-1.4,1.9-1.4,3s.3,1.6.9,2.3c.9,1,2.9,2.4,6.1,4.1,2.6,1.4,4.4,2.5,5.4,3.2,1,.8,1.7,1.6,2.2,2.7.5,1,.8,2.1.8,3.2,0,2.1-.8,4-2.5,5.5s-3.8,2.3-6.4,2.3-1.6,0-2.3-.2c-.4,0-1.3-.3-2.7-.8s-2.2-.7-2.6-.7-.6.1-.8.3-.3.6-.4,1.3h-.8v-9.6h.8c.4,2,.8,3.5,1.5,4.5.6,1,1.5,1.8,2.8,2.5,1.2.7,2.6,1,4.1,1s3.1-.5,4.1-1.4c1-.9,1.5-2,1.5-3.2s-.2-1.4-.6-2.1c-.4-.7-1-1.4-1.8-2-.5-.4-2-1.3-4.4-2.6-2.4-1.3-4.1-2.4-5.1-3.2-1-.8-1.8-1.7-2.3-2.7-.5-1-.8-2-.8-3.2,0-2,.8-3.8,2.3-5.2,1.5-1.5,3.5-2.2,5.9-2.2s3.1.4,4.7,1.1c.8.3,1.3.5,1.6.5s.7-.1.9-.3c.2-.2.4-.6.5-1.3h.8Z"/>
        <path class="cls-31" d="m556.3,671v-.8h1.1c1.2,0,2-.4,2.5-1.1.3-.5.5-1.5.5-3.1v-18.2c0-1.8-.2-2.9-.6-3.3-.5-.6-1.3-.9-2.4-.9h-1.1v-.8h11.4c4.2,0,7.4.5,9.6,1.4,2.2,1,4,2.5,5.3,4.8,1.3,2.2,2,4.8,2,7.7s-1.2,7.2-3.6,9.8c-2.7,2.9-6.7,4.4-12.2,4.4h-12.6Zm8-2c1.8.4,3.2.6,4.4.6,3.2,0,5.9-1.1,8-3.4,2.1-2.3,3.2-5.3,3.2-9.2s-1.1-6.9-3.2-9.2c-2.1-2.2-4.8-3.4-8.1-3.4s-2.7.2-4.2.6v23.9Z"/>
        <path class="cls-12" d="m601.7,642.2c3.6,0,6.8,1.4,9.5,4.2,2.7,2.8,4,6.2,4,10.4s-1.3,7.8-4,10.6c-2.7,2.8-6,4.2-9.8,4.2s-7.1-1.4-9.8-4.1-3.9-6.3-3.9-10.7,1.5-8.1,4.6-10.9c2.6-2.4,5.8-3.7,9.5-3.7Zm-.4,1.5c-2.5,0-4.5.9-6.1,2.8-1.9,2.3-2.8,5.7-2.8,10.2s1,8.1,2.9,10.6c1.5,1.9,3.5,2.8,6,2.8s4.8-1,6.5-3.1c1.7-2.1,2.6-5.3,2.6-9.7s-.9-8.4-2.8-10.8c-1.5-1.9-3.6-2.8-6.3-2.8Z"/>
        <path class="cls-15" d="m645.5,671h-7.5l-9.5-13.1c-.7,0-1.3,0-1.7,0s-.4,0-.6,0c-.2,0-.4,0-.6,0v8.2c0,1.8.2,2.9.6,3.3.5.6,1.3.9,2.4.9h1.1v.8h-12v-.8h1.1c1.2,0,2-.4,2.5-1.2.3-.4.4-1.4.4-3v-18.2c0-1.8-.2-2.9-.6-3.3-.5-.6-1.3-.9-2.4-.9h-1.1v-.8h10.2c3,0,5.2.2,6.6.7,1.4.4,2.6,1.2,3.6,2.4,1,1.2,1.5,2.6,1.5,4.2s-.6,3.2-1.7,4.5-2.9,2.2-5.2,2.7l5.8,8.1c1.3,1.9,2.5,3.1,3.4,3.7,1,.6,2.2,1,3.7,1.2v.8Zm-20-14.4c.3,0,.5,0,.7,0,.2,0,.4,0,.5,0,2.7,0,4.7-.6,6.1-1.7s2-2.6,2-4.4-.5-3.2-1.6-4.3c-1.1-1.1-2.6-1.6-4.4-1.6s-1.9.1-3.3.4v11.7Z"/>
        <path class="cls-23" d="m653.8,644.4v11h5.1c1.2,0,2-.3,2.6-.8s.9-1.5,1.1-3.1h.8v9.5h-.8c0-1.1-.2-1.9-.4-2.4-.3-.5-.6-.9-1.1-1.2-.5-.3-1.2-.4-2.1-.4h-5.1v8.8c0,1.4,0,2.4.3,2.8.1.3.4.6.9.9.6.3,1.2.5,1.9.5h1v.8h-12.1v-.8h1c1.2,0,2-.3,2.5-1,.3-.4.5-1.5.5-3.2v-18.2c0-1.4,0-2.4-.3-2.8-.1-.3-.4-.6-.9-.9-.6-.3-1.2-.5-1.9-.5h-1v-.8h20.9l.3,6.2h-.7c-.4-1.3-.8-2.3-1.3-2.9-.5-.6-1.1-1.1-1.8-1.3-.7-.3-1.8-.4-3.2-.4h-6.2Z"/>
        <path class="cls-10" d="m667.7,678.1v-.9c1.4-.5,2.5-1.2,3.3-2.2.8-1,1.2-2,1.2-3.1s0-.5-.2-.7c0-.1-.2-.2-.3-.2-.2,0-.5.1-1,.4-.2.1-.5.2-.8.2-.7,0-1.2-.2-1.6-.6s-.6-1-.6-1.7.3-1.3.8-1.7c.5-.5,1.2-.7,1.9-.7s1.7.4,2.4,1.2c.7.8,1.1,1.8,1.1,3.2s-.5,2.7-1.5,4c-1,1.2-2.6,2.2-4.7,2.9Z"/>
        <path class="cls-19" d="m710.9,663.2h.7c0,.1-2.4,7.8-2.4,7.8h-21.8v-.8h1.1c1.2,0,2-.4,2.5-1.2.3-.4.4-1.5.4-3.1v-18.1c0-1.8-.2-2.9-.6-3.3-.5-.6-1.3-.9-2.4-.9h-1.1v-.8h12.7v.8c-1.5,0-2.5.1-3.1.4-.6.3-1,.7-1.2,1.1-.2.4-.3,1.5-.3,3.2v17.7c0,1.1.1,1.9.3,2.4.2.3.4.5.8.6.3.1,1.4.2,3.2.2h2.1c2.2,0,3.7-.2,4.5-.5.9-.3,1.7-.9,2.4-1.7s1.4-2.1,2.2-3.8Z"/>
        <path class="cls-13" d="m736.9,663.2h.7c0,.1-2.4,7.8-2.4,7.8h-21.8v-.8h1.1c1.2,0,2-.4,2.5-1.2.3-.4.4-1.5.4-3.1v-18.1c0-1.8-.2-2.9-.6-3.3-.5-.6-1.3-.9-2.4-.9h-1.1v-.8h12.7v.8c-1.5,0-2.5.1-3.1.4-.6.3-1,.7-1.2,1.1-.2.4-.3,1.5-.3,3.2v17.7c0,1.1.1,1.9.3,2.4.2.3.4.5.8.6.3.1,1.4.2,3.2.2h2.1c2.2,0,3.7-.2,4.5-.5.9-.3,1.7-.9,2.4-1.7s1.4-2.1,2.2-3.8Z"/>
        <path class="cls-26" d="m747.2,657.8v8.2c0,1.8.2,2.9.6,3.3.5.6,1.3.9,2.4.9h1.1v.8h-12v-.8h1.1c1.2,0,2-.4,2.5-1.2.3-.4.4-1.4.4-3v-18.2c0-1.8-.2-2.9-.6-3.3-.5-.6-1.3-.9-2.4-.9h-1.1v-.8h10.3c2.5,0,4.5.3,5.9.8s2.7,1.4,3.7,2.6c1,1.2,1.5,2.7,1.5,4.4s-.8,4.2-2.3,5.6c-1.5,1.4-3.7,2.2-6.4,2.2s-1.4,0-2.2-.1-1.6-.2-2.5-.4Zm0-1.2c.7.1,1.4.2,1.9.3.6,0,1,.1,1.5.1,1.4,0,2.7-.6,3.7-1.7,1-1.1,1.6-2.6,1.6-4.3s-.2-2.3-.7-3.4c-.5-1-1.2-1.8-2.1-2.3-.9-.5-1.9-.8-3.1-.8s-1.6.1-2.7.4v11.7Z"/>
      </g>
    </g>
  </g>
</svg>